<svg style="" width="25" height="18" viewBox="0 0 15 18" fill="none" xmlns="http://www.w3.org/2000/svg">
  <path fill-rule="evenodd" clip-rule="evenodd" d="M9.88472 17.1666H4.94972C2.73189 17.1289 0.964164 15.3011 1.00055 13.0833V8.99992C0.980332 7.16392 2.19417 5.54259 3.96155 5.04492V4.50825C3.90265 2.5398 5.44887 0.895441 7.41722 0.833252C9.38557 0.895441 10.9318 2.5398 10.8729 4.50825V5.04492C12.6403 5.54259 13.8541 7.16392 13.8339 8.99992V13.0833C13.8703 15.3011 12.1026 17.1289 9.88472 17.1666Z" stroke="#A1A1A1" stroke-width="1.5" stroke-linecap="round" stroke-linejoin="round"/>
  <path d="M6.66739 13.0832C6.66739 13.4974 7.00318 13.8332 7.41739 13.8332C7.8316 13.8332 8.16739 13.4974 8.16739 13.0832H6.66739ZM8.16739 11.0415C8.16739 10.6273 7.8316 10.2915 7.41739 10.2915C7.00318 10.2915 6.66739 10.6273 6.66739 11.0415H8.16739ZM10.6806 5.76972C11.0809 5.87602 11.4917 5.63764 11.5979 5.2373C11.7042 4.83696 11.4659 4.42625 11.0655 4.31995L10.6806 5.76972ZM9.88606 4.9165V5.66651L9.88675 5.6665L9.88606 4.9165ZM4.94989 4.9165L4.9492 5.6665H4.94989V4.9165ZM3.77043 4.31995C3.37009 4.42625 3.13171 4.83696 3.23801 5.2373C3.3443 5.63764 3.75501 5.87602 4.15535 5.76972L3.77043 4.31995ZM8.16739 13.0832V11.0415H6.66739V13.0832H8.16739ZM11.0655 4.31995C10.6805 4.21772 10.2837 4.16614 9.88537 4.16651L9.88675 5.6665C10.1547 5.66626 10.4216 5.70096 10.6806 5.76972L11.0655 4.31995ZM9.88606 4.1665H4.94989V5.6665H9.88606V4.1665ZM4.95058 4.16651C4.5522 4.16614 4.15547 4.21772 3.77043 4.31995L4.15535 5.76972C4.41436 5.70096 4.68122 5.66626 4.9492 5.6665L4.95058 4.16651Z" fill="#A1A1A1"/>
</svg>