<svg width="19" height="18" viewBox="0 0 19 18" fill="none" xmlns="http://www.w3.org/2000/svg">
  <path d="M17.2505 5.78035C17.2658 6.19428 17.6138 6.51743 18.0277 6.50213C18.4416 6.48682 18.7648 6.13885 18.7495 5.72492L17.2505 5.78035ZM13.1782 1.41931V2.16931C13.1863 2.16931 13.1943 2.16918 13.2024 2.16892L13.1782 1.41931ZM5.94675 1.41931L5.92262 2.16892C5.93066 2.16918 5.93871 2.16931 5.94675 2.16931V1.41931ZM0.375512 5.72492C0.360206 6.13885 0.683354 6.48682 1.09728 6.50213C1.51122 6.51743 1.85918 6.19428 1.87449 5.78035L0.375512 5.72492ZM18.75 5.75264C18.75 5.33843 18.4142 5.00264 18 5.00264C17.5858 5.00264 17.25 5.33843 17.25 5.75264H18.75ZM18 12.2526L18.7495 12.2804C18.7498 12.2711 18.75 12.2619 18.75 12.2526H18ZM13.1782 16.586L13.2024 15.8364C13.1943 15.8361 13.1863 15.836 13.1782 15.836V16.586ZM5.94675 16.586V15.836C5.93871 15.836 5.93066 15.8361 5.92262 15.8364L5.94675 16.586ZM1.125 12.2526H0.375C0.375 12.2619 0.375171 12.2711 0.375512 12.2804L1.125 12.2526ZM1.875 5.75264C1.875 5.33843 1.53921 5.00264 1.125 5.00264C0.710786 5.00264 0.375 5.33843 0.375 5.75264H1.875ZM18.3677 6.40631C18.7287 6.20324 18.8568 5.74595 18.6537 5.38493C18.4506 5.02392 17.9933 4.89588 17.6323 5.09896L18.3677 6.40631ZM12.078 9.08389L11.7103 8.43018L11.7041 8.43373L12.078 9.08389ZM7.047 9.08389L7.42091 8.4337L7.41471 8.43021L7.047 9.08389ZM1.49271 5.09896C1.13169 4.89588 0.674403 5.02392 0.471324 5.38493C0.268246 5.74595 0.396278 6.20324 0.757294 6.40631L1.49271 5.09896ZM18.7495 5.72492C18.6416 2.80866 16.1131 0.574458 13.1541 0.669694L13.2024 2.16892C15.3895 2.09852 17.1751 3.74146 17.2505 5.78035L18.7495 5.72492ZM13.1782 0.669306H5.94675V2.16931H13.1782V0.669306ZM5.97088 0.669694C3.01187 0.574458 0.483352 2.80866 0.375512 5.72492L1.87449 5.78035C1.94988 3.74146 3.7355 2.09852 5.92262 2.16892L5.97088 0.669694ZM17.25 5.75264V12.2526H18.75V5.75264H17.25ZM17.2505 12.2249C17.1751 14.2638 15.3895 15.9068 13.2024 15.8364L13.1541 17.3356C16.1131 17.4308 18.6416 15.1966 18.7495 12.2804L17.2505 12.2249ZM13.1782 15.836H5.94675V17.336H13.1782V15.836ZM5.92262 15.8364C3.7355 15.9068 1.94988 14.2638 1.87449 12.2249L0.375512 12.2804C0.483352 15.1966 3.01188 17.4308 5.97088 17.3356L5.92262 15.8364ZM1.875 12.2526V5.75264H0.375V12.2526H1.875ZM17.6323 5.09896L11.7103 8.43021L12.4457 9.73757L18.3677 6.40631L17.6323 5.09896ZM11.7041 8.43373C10.3862 9.19162 8.73877 9.19162 7.42089 8.43373L6.67311 9.73405C8.45396 10.7582 10.671 10.7582 12.4519 9.73405L11.7041 8.43373ZM7.41471 8.43021L1.49271 5.09896L0.757294 6.40631L6.67929 9.73757L7.41471 8.43021Z" fill="black"/>
</svg>